# xmcd
#
# Track frame offsets:
#	183
#	17120
#	38668
#	62973
#	84140
#	98405
#	117175
#	129365
#	143065
#	158143
#	169513
#	185360
#	201745
#	221735
#	238635
#
# Disc length: 3425 seconds
#
# Revision: 2
# Processed by: cddbd v1.4PL0 Copyright (c) Steve Scherf et al.
# Submitted via: audiograbber 1.81.03
#
DISCID=c50d5f0f
DTITLE=Townes Van Zandt - Road Songs
DYEAR=1993
DGENRE=Blues
TTITLE0=Ira Hayes
TTITLE1=Dead Flowers
TTITLE2=Automobile Blues
TTITLE3=Coo Coo
TTITLE4=Fraulein
TTITLE5=Hello Central
TTITLE6=Indian Cowboy
TTITLE7=Racing in the Streets
TTITLE8=My Starter Won't Start
TTITLE9=Texas River Song
TTITLE10=Wabash Cannonball
TTITLE11=Short-Haired Woman Blues
TTITLE12=Man Gave Names to the Animals
TTITLE13=Little Willie the Gambler
TTITLE14=Cocaine Blues
EXTD=
EXTT0=
EXTT1=
EXTT2=
EXTT3=
EXTT4=
EXTT5=
EXTT6=
EXTT7=
EXTT8=
EXTT9=
EXTT10=
EXTT11=
EXTT12=
EXTT13=
EXTT14=
PLAYORDER=
